<svg width="35" height="30" viewBox="0 0 35 30" fill="none" xmlns="http://www.w3.org/2000/svg">
<path d="M29.3812 13.5048H1.5C1.10218 13.5048 0.720645 13.6628 0.43934 13.9442C0.158036 14.2255 0 14.607 0 15.0048C0 15.4026 0.158036 15.7842 0.43934 16.0655C0.720645 16.3468 1.10218 16.5048 1.5 16.5048H29.3812L18.4359 27.4407C18.1537 27.723 17.9952 28.1057 17.9952 28.5048C17.9952 28.9039 18.1537 29.2867 18.4359 29.5689C18.7181 29.8511 19.1009 30.0096 19.5 30.0096C19.8991 30.0096 20.2819 29.8511 20.5641 29.5689L34.0641 16.0689C34.2044 15.9295 34.3157 15.7637 34.3917 15.5811C34.4677 15.3984 34.5068 15.2026 34.5068 15.0048C34.5068 14.807 34.4677 14.6112 34.3917 14.4286C34.3157 14.2459 34.2044 14.0802 34.0641 13.9407L20.5641 0.440749C20.4243 0.301014 20.2584 0.190171 20.0759 0.114547C19.8933 0.0389229 19.6976 3.89546e-09 19.5 0C19.3024 -3.89545e-09 19.1067 0.0389229 18.9241 0.114547C18.7416 0.190171 18.5757 0.301014 18.4359 0.440749C18.2962 0.580484 18.1854 0.746373 18.1097 0.928945C18.0341 1.11152 17.9952 1.3072 17.9952 1.50481C17.9952 1.70243 18.0341 1.89811 18.1097 2.08068C18.1854 2.26325 18.2962 2.42914 18.4359 2.56887L29.3812 13.5048Z" fill="white"/>
</svg>
