<svg width="48" height="48" viewBox="0 0 48 48" fill="none" xmlns="http://www.w3.org/2000/svg">
<path d="M30 48V31.797C31.3709 31.0083 32.5097 29.8721 33.3016 28.503C34.0935 27.1338 34.5104 25.5801 34.5104 23.9985C34.5104 22.4169 34.0935 20.8632 33.3016 19.494C32.5097 18.1249 31.3709 16.9887 30 16.2V0L14.001 12H0V36H14.001L30 48Z" fill="white"/>
<path d="M40.8 9.6L38.403 7.8L34.8 12.597L37.2 14.397C38.1101 15.0811 38.9182 15.8912 39.6 16.803C41.109 18.807 42 21.294 42 24C42 26.706 41.109 29.19 39.6 31.2C38.9178 32.1097 38.1097 32.9177 37.2 33.6L34.8 35.403L38.403 40.203L40.803 38.4C42.1654 37.3762 43.3755 36.1641 44.397 34.8C46.7388 31.6867 48.0035 27.8957 48 24C48 19.95 46.659 16.206 44.4 13.2C43.3766 11.8355 42.1645 10.6234 40.8 9.6Z" fill="white"/>
</svg>
