<svg width="43" height="40" viewBox="0 0 43 40" fill="none" xmlns="http://www.w3.org/2000/svg">
<path d="M38 23.5C38 23.1022 37.842 22.7206 37.5607 22.4393C37.2794 22.158 36.8978 22 36.5 22H30.5C30.1022 22 29.7206 22.158 29.4393 22.4393C29.158 22.7206 29 23.1022 29 23.5V37H26V4.5C26 3.044 25.996 2.1 25.904 1.408C25.816 0.758 25.674 0.554 25.56 0.44C25.446 0.326 25.242 0.184 24.592 0.0960002C23.898 0.00400019 22.956 0 21.5 0C20.044 0 19.1 0.00400019 18.408 0.0960002C17.758 0.184 17.554 0.326 17.44 0.44C17.326 0.554 17.184 0.758 17.096 1.408C17.004 2.102 17 3.044 17 4.5V37H14V13.5C14 13.1022 13.842 12.7206 13.5607 12.4393C13.2794 12.158 12.8978 12 12.5 12H6.5C6.10218 12 5.72064 12.158 5.43934 12.4393C5.15804 12.7206 5 13.1022 5 13.5V37H1.5C1.10218 37 0.720644 37.158 0.43934 37.4393C0.158035 37.7206 0 38.1022 0 38.5C0 38.8978 0.158035 39.2794 0.43934 39.5607C0.720644 39.842 1.10218 40 1.5 40H41.5C41.8978 40 42.2794 39.842 42.5607 39.5607C42.842 39.2794 43 38.8978 43 38.5C43 38.1022 42.842 37.7206 42.5607 37.4393C42.2794 37.158 41.8978 37 41.5 37H38V23.5Z" fill="white"/>
</svg>
