<svg width="40" height="29" viewBox="0 0 40 29" fill="none" xmlns="http://www.w3.org/2000/svg">
<path fill-rule="evenodd" clip-rule="evenodd" d="M39.0999 0.879359C39.6623 1.44194 39.9782 2.20487 39.9782 3.00036C39.9782 3.79585 39.6623 4.55878 39.0999 5.12136L16.6139 27.6074C16.3167 27.9046 15.9639 28.1404 15.5756 28.3012C15.1873 28.4621 14.7712 28.5449 14.3509 28.5449C13.9306 28.5449 13.5144 28.4621 13.1261 28.3012C12.7378 28.1404 12.385 27.9046 12.0879 27.6074L0.915865 16.4374C0.629334 16.1606 0.400788 15.8296 0.243561 15.4636C0.0863336 15.0976 0.00357472 14.7039 0.00011327 14.3056C-0.00334818 13.9072 0.0725572 13.5122 0.2234 13.1435C0.374243 12.7748 0.597002 12.4399 0.87868 12.1582C1.16036 11.8765 1.49531 11.6537 1.864 11.5029C2.23269 11.3521 2.62773 11.2761 3.02607 11.2796C3.42441 11.2831 3.81807 11.3658 4.18408 11.5231C4.55009 11.6803 4.88112 11.9088 5.15786 12.1954L14.3499 21.3874L34.8559 0.879359C35.1345 0.60058 35.4653 0.37943 35.8294 0.228545C36.1935 0.0776608 36.5837 0 36.9779 0C37.372 0 37.7623 0.0776608 38.1264 0.228545C38.4905 0.37943 38.8213 0.60058 39.0999 0.879359Z" fill="white"/>
</svg>
