<svg width="36" height="36" viewBox="0 0 36 36" fill="none" xmlns="http://www.w3.org/2000/svg">
<path d="M10 4C10 2.93913 10.4214 1.92172 11.1716 1.17157C11.9217 0.421427 12.9391 0 14 0H22C23.0609 0 24.0783 0.421427 24.8284 1.17157C25.5786 1.92172 26 2.93913 26 4V10H32C33.0609 10 34.0783 10.4214 34.8284 11.1716C35.5786 11.9217 36 12.9391 36 14V22C36 23.0609 35.5786 24.0783 34.8284 24.8284C34.0783 25.5786 33.0609 26 32 26H26V32C26 33.0609 25.5786 34.0783 24.8284 34.8284C24.0783 35.5786 23.0609 36 22 36H14C12.9391 36 11.9217 35.5786 11.1716 34.8284C10.4214 34.0783 10 33.0609 10 32V26H4C2.93913 26 1.92172 25.5786 1.17157 24.8284C0.421427 24.0783 0 23.0609 0 22V14C0 12.9391 0.421427 11.9217 1.17157 11.1716C1.92172 10.4214 2.93913 10 4 10H10V4Z" fill="white"/>
</svg>
