<svg width="41" height="40" viewBox="0 0 41 40" fill="none" xmlns="http://www.w3.org/2000/svg">
<path d="M34.6 13.8L41 20.2L38.2 23L31.8 16.6C31.1 17 30.35 17.3333 29.55 17.6C28.75 17.8667 27.9 18 27 18C24.5 18 22.3753 17.1253 20.626 15.376C18.8767 13.6267 18.0013 11.5013 18 9.00001C17.9987 6.49867 18.874 4.37401 20.626 2.62601C22.378 0.878006 24.5027 0.00267274 27 6.07441e-06C29.4973 -0.00266059 31.6227 0.872673 33.376 2.62601C35.1293 4.37934 36.004 6.50401 36 9.00001C36 9.90001 35.8667 10.75 35.6 11.55C35.3333 12.35 35 13.1 34.6 13.8ZM30.55 12.55C31.5167 11.5833 32 10.4 32 9.00001C32 7.60001 31.5167 6.41667 30.55 5.45001C29.5833 4.48334 28.4 4.00001 27 4.00001C25.6 4.00001 24.4167 4.48334 23.45 5.45001C22.4833 6.41667 22 7.60001 22 9.00001C22 10.4 22.4833 11.5833 23.45 12.55C24.4167 13.5167 25.6 14 27 14C28.4 14 29.5833 13.5167 30.55 12.55ZM4 40C2.9 40 1.95867 39.6087 1.176 38.826C0.393333 38.0433 0.00133333 37.1013 0 36V8.00001C0 6.90001 0.392 5.95867 1.176 5.17601C1.96 4.39334 2.90133 4.00134 4 4.00001H15C14.6333 4.83334 14.3833 5.69201 14.25 6.57601C14.1167 7.46001 14.05 8.33467 14.05 9.20001C14.05 12.8333 15.3333 15.8667 17.9 18.3C20.4667 20.7333 23.5167 21.95 27.05 21.95C27.6833 21.95 28.3167 21.908 28.95 21.824C29.5833 21.74 30.2333 21.5987 30.9 21.4L36 26.5V36C36 37.1 35.6087 38.042 34.826 38.826C34.0433 39.61 33.1013 40.0013 32 40H4Z" fill="white"/>
</svg>
