<svg width="40" height="40" viewBox="0 0 40 40" fill="none" xmlns="http://www.w3.org/2000/svg">
<path d="M21.426 29.426C21.8087 29.042 22 28.5667 22 28V20C22 19.4333 21.808 18.9587 21.424 18.576C21.04 18.1933 20.5653 18.0013 20 18C19.4347 17.9987 18.96 18.1907 18.576 18.576C18.192 18.9613 18 19.436 18 20V28C18 28.5667 18.192 29.042 18.576 29.426C18.96 29.81 19.4347 30.0013 20 30C20.5653 29.9987 21.0407 29.8087 21.426 29.426ZM21.426 13.424C21.8087 13.0413 22 12.5667 22 12C22 11.4333 21.808 10.9587 21.424 10.576C21.04 10.1933 20.5653 10.0013 20 10C19.4347 9.99867 18.96 10.1907 18.576 10.576C18.192 10.9613 18 11.436 18 12C18 12.564 18.192 13.0393 18.576 13.426C18.96 13.8127 19.4347 14.004 20 14C20.5653 13.996 21.0407 13.804 21.426 13.424ZM20 40C17.2333 40 14.6333 39.4747 12.2 38.424C9.76667 37.3733 7.65 35.9487 5.85 34.15C4.05 32.3513 2.62534 30.2347 1.576 27.8C0.526669 25.3653 0.00133586 22.7653 2.53164e-06 20C-0.0013308 17.2347 0.524003 14.6347 1.576 12.2C2.628 9.76533 4.05267 7.64867 5.85 5.85C7.64734 4.05133 9.764 2.62667 12.2 1.576C14.636 0.525334 17.236 0 20 0C22.764 0 25.364 0.525334 27.8 1.576C30.236 2.62667 32.3527 4.05133 34.15 5.85C35.9473 7.64867 37.3727 9.76533 38.426 12.2C39.4793 14.6347 40.004 17.2347 40 20C39.996 22.7653 39.4707 25.3653 38.424 27.8C37.3773 30.2347 35.9527 32.3513 34.15 34.15C32.3473 35.9487 30.2307 37.374 27.8 38.426C25.3693 39.478 22.7693 40.0027 20 40Z" fill="white"/>
</svg>
