<svg width="42" height="42" viewBox="0 0 42 42" fill="none" xmlns="http://www.w3.org/2000/svg">
<path d="M17.828 3.01825C18.0931 3.76828 18.0495 4.59291 17.7067 5.31077C17.3639 6.02863 16.75 6.58094 16 6.84625C13.4075 7.76282 11.1169 9.37438 9.3784 11.5048C7.63991 13.6352 6.52048 16.2025 6.14244 18.9261C5.7644 21.6498 6.1423 24.4249 7.23484 26.9483C8.32738 29.4716 10.0925 31.6461 12.3374 33.2341C14.5822 34.8221 17.2203 35.7625 19.9635 35.9525C22.7067 36.1425 25.4493 35.5749 27.8916 34.3115C30.3339 33.0482 32.382 31.1378 33.812 28.7892C35.242 26.4405 35.9989 23.744 36 20.9942C36 18.5942 35.44 16.3342 34.442 14.3302C34.2666 13.9774 34.1623 13.5934 34.1353 13.2003C34.1082 12.8071 34.1589 12.4125 34.2843 12.0389C34.5377 11.2845 35.0804 10.6616 35.793 10.3072C36.5056 9.95292 37.3298 9.89619 38.0843 10.1496C38.8388 10.4029 39.4617 10.9456 39.816 11.6582C41.2569 14.5592 42.0046 17.7551 42 20.9942C42 32.5922 32.598 41.9942 21 41.9942C9.402 41.9942 0 32.5922 0 20.9942C0 11.8462 5.848 4.07225 14 1.19025C14.75 0.925141 15.5747 0.968789 16.2925 1.31159C17.0104 1.65439 17.5627 2.26828 17.828 3.01825ZM22 3.02225C21.9997 2.56593 22.1027 2.11548 22.3015 1.70472C22.5002 1.29396 22.7894 0.93357 23.1474 0.650633C23.5054 0.367695 23.9229 0.169562 24.3685 0.0711175C24.814 -0.0273265 25.2761 -0.0235217 25.72 0.082246L25.976 0.156246L31.948 2.14825C32.6792 2.39192 33.2886 2.90768 33.6498 3.58857C34.011 4.26946 34.0962 5.06325 33.8879 5.80531C33.6795 6.54737 33.1936 7.18078 32.5308 7.57418C31.868 7.96758 31.0792 8.09078 30.328 7.91825L30.052 7.84025L28 7.15625V20.9942L27.99 21.3782C27.9134 22.7728 27.4213 24.1125 26.5771 25.2252C25.7329 26.3379 24.5752 27.1725 23.2528 27.6219C21.9304 28.0713 20.5038 28.1148 19.1565 27.7469C17.8092 27.379 16.6027 26.6164 15.6923 25.5573C14.7818 24.4982 14.209 23.1909 14.0475 21.8036C13.886 20.4163 14.1432 19.0125 14.786 17.7725C15.4288 16.5326 16.4278 15.5132 17.6545 14.8456C18.8813 14.178 20.2797 13.8927 21.67 14.0262L22 14.0662V3.02225Z" fill="white"/>
</svg>
