<svg width="40" height="30" viewBox="0 0 40 30" fill="none" xmlns="http://www.w3.org/2000/svg">
<path d="M0 4C0 2.93913 0.421427 1.92172 1.17157 1.17157C1.92172 0.421427 2.93913 0 4 0C5.06087 0 6.07828 0.421427 6.82843 1.17157C7.57857 1.92172 8 2.93913 8 4V26C8 27.0609 7.57857 28.0783 6.82843 28.8284C6.07828 29.5786 5.06087 30 4 30C2.93913 30 1.92172 29.5786 1.17157 28.8284C0.421427 28.0783 0 27.0609 0 26V4ZM32 4C32 2.93913 32.4214 1.92172 33.1716 1.17157C33.9217 0.421427 34.9391 0 36 0C37.0609 0 38.0783 0.421427 38.8284 1.17157C39.5786 1.92172 40 2.93913 40 4V26C40 27.0609 39.5786 28.0783 38.8284 28.8284C38.0783 29.5786 37.0609 30 36 30C34.9391 30 33.9217 29.5786 33.1716 28.8284C32.4214 28.0783 32 27.0609 32 26V4ZM29 4H11V26H29V4Z" fill="white"/>
</svg>
