<svg width="34" height="41" viewBox="0 0 34 41" fill="none" xmlns="http://www.w3.org/2000/svg">
<path d="M24 0C24.6624 0 25.2 0.5328 25.2 1.1928C25.2 2.304 25.3752 4.1184 26.3328 5.6232C27.2328 7.0344 28.932 8.3496 32.4 8.3496C33.0624 8.3496 33.6 8.8824 33.6 9.5424C33.5981 9.85941 33.4708 10.1628 33.246 10.3863C33.0212 10.6098 32.717 10.7352 32.4 10.7352C31.5144 10.7352 29.664 11.2704 28.032 12.516C26.4408 13.728 25.2 15.4944 25.2 17.892C25.1975 18.2086 25.0699 18.5114 24.8452 18.7343C24.6204 18.9573 24.3166 19.0824 24 19.0824C23.683 19.0824 23.3788 18.957 23.154 18.7335C22.9292 18.51 22.8019 18.2066 22.8 17.8896C22.8 16.6896 22.428 14.8632 21.3456 13.368C20.3088 11.9376 18.5688 10.7352 15.6 10.7352C15.283 10.7352 14.9788 10.6098 14.754 10.3863C14.5292 10.1628 14.4019 9.85941 14.4 9.5424C14.4 8.8824 14.9376 8.3496 15.6 8.3496C16.8288 8.3496 18.612 8.3256 20.0952 7.4688C21.4488 6.684 22.8 5.04 22.8 1.1928C22.8 0.5328 23.3376 0 24 0ZM3.948 26.7984L1.7112 34.9488C1.3032 36.4368 1.896 38.1768 3.4872 38.8848C7.4184 40.6296 14.6472 42.1272 22.6152 38.9064C24.3192 38.2152 25.0656 36.3528 24.5688 34.7064L22.2288 26.9568C19.5884 28.823 16.4333 29.8227 13.2 29.8176C9.87295 29.8236 6.63114 28.7657 3.948 26.7984ZM20.22 3.1992C20.1096 3.7224 19.9632 4.1112 19.8168 4.3968C19.6151 4.81962 19.2906 5.17176 18.8856 5.4072C18.036 5.8992 16.8912 5.964 15.6 5.964C13.6128 5.964 12 7.5648 12 9.54C12 11.5176 13.6128 13.1184 15.6 13.1184C17.7864 13.1184 18.8064 13.944 19.3992 14.7624C20.124 15.7632 20.4 17.0712 20.4 17.8896C20.4011 18.384 20.5044 18.8728 20.7033 19.3254C20.9022 19.778 21.1925 20.1845 21.556 20.5196C21.9195 20.8547 22.3483 21.1111 22.8156 21.2726C23.2828 21.4342 23.7784 21.4974 24.2712 21.4584C23.0686 23.2967 21.4262 24.8058 19.493 25.8489C17.5597 26.892 15.3967 27.4362 13.2 27.432C5.9088 27.432 0 21.5568 0 14.3112C0 7.0656 5.9088 1.1928 13.2 1.1928C15.78 1.1928 18.1848 1.9272 20.2176 3.1992" fill="white"/>
</svg>
