<svg width="40" height="40" viewBox="0 0 40 40" fill="none" xmlns="http://www.w3.org/2000/svg">
<path d="M0 40C0 36.3 0.492 33.142 1.476 30.526C2.46 27.91 3.71733 25.7347 5.248 24C6.77867 22.2653 8.496 20.9233 10.4 19.974C12.304 19.0247 14.1707 18.3667 16 18V12C11.4333 11.4333 7.62533 10.0247 4.576 7.774C1.52667 5.52333 0.00133333 2.932 0 0H40C40 2.93333 38.4753 5.52533 35.426 7.776C32.3767 10.0267 28.568 11.4347 24 12V18C25.8333 18.3667 27.7 19.0253 29.6 19.976C31.5 20.9267 33.2167 22.268 34.75 24C36.2833 25.732 37.542 27.9073 38.526 30.526C39.51 33.1447 40.0013 36.3027 40 40H28V36H35.75C35.15 30.9333 33.258 27.2667 30.074 25C26.89 22.7333 23.532 21.6 20 21.6C16.468 21.6 13.1093 22.7333 9.924 25C6.73867 27.2667 4.84733 30.9333 4.25 36H12V40H0ZM20 40C18.9 40 17.9587 39.6087 17.176 38.826C16.3933 38.0433 16.0013 37.1013 16 36C16 35.4333 16.1087 34.9167 16.326 34.45C16.5433 33.9833 16.8347 33.5667 17.2 33.2C18 32.4 19.35 31.558 21.25 30.674C23.15 29.79 25.4 28.8987 28 28C27.0667 30.6 26.1667 32.85 25.3 34.75C24.4333 36.65 23.6 38 22.8 38.8C22.4333 39.1667 22.0167 39.4587 21.55 39.676C21.0833 39.8933 20.5667 40.0013 20 40Z" fill="white"/>
</svg>
