<svg width="36" height="36" viewBox="0 0 36 36" fill="none" xmlns="http://www.w3.org/2000/svg">
<path d="M33 0H3C2.20435 0 1.44129 0.31607 0.87868 0.87868C0.31607 1.44129 0 2.20435 0 3V33C0 33.7956 0.31607 34.5587 0.87868 35.1213C1.44129 35.6839 2.20435 36 3 36H33C33.7956 36 34.5587 35.6839 35.1213 35.1213C35.6839 34.5587 36 33.7956 36 33V3C36 2.20435 35.6839 1.44129 35.1213 0.87868C34.5587 0.31607 33.7956 0 33 0ZM13.5 31.5H7.5C6.70435 31.5 5.94129 31.1839 5.37868 30.6213C4.81607 30.0587 4.5 29.2956 4.5 28.5V22.5C4.5 22.1022 4.65804 21.7206 4.93934 21.4393C5.22064 21.158 5.60218 21 6 21C6.39782 21 6.77936 21.158 7.06066 21.4393C7.34196 21.7206 7.5 22.1022 7.5 22.5V28.5H13.5C13.8978 28.5 14.2794 28.658 14.5607 28.9393C14.842 29.2206 15 29.6022 15 30C15 30.3978 14.842 30.7794 14.5607 31.0607C14.2794 31.342 13.8978 31.5 13.5 31.5ZM13.5 7.5H7.5V13.5C7.5 13.8978 7.34196 14.2794 7.06066 14.5607C6.77936 14.842 6.39782 15 6 15C5.60218 15 5.22064 14.842 4.93934 14.5607C4.65804 14.2794 4.5 13.8978 4.5 13.5V7.5C4.5 6.70435 4.81607 5.94129 5.37868 5.37868C5.94129 4.81607 6.70435 4.5 7.5 4.5H13.5C13.8978 4.5 14.2794 4.65804 14.5607 4.93934C14.842 5.22064 15 5.60218 15 6C15 6.39782 14.842 6.77936 14.5607 7.06066C14.2794 7.34196 13.8978 7.5 13.5 7.5ZM31.5 28.5C31.5 29.2956 31.1839 30.0587 30.6213 30.6213C30.0587 31.1839 29.2956 31.5 28.5 31.5H22.5C22.1022 31.5 21.7206 31.342 21.4393 31.0607C21.158 30.7794 21 30.3978 21 30C21 29.6022 21.158 29.2206 21.4393 28.9393C21.7206 28.658 22.1022 28.5 22.5 28.5H28.5V22.5C28.5 22.1022 28.658 21.7206 28.9393 21.4393C29.2206 21.158 29.6022 21 30 21C30.3978 21 30.7794 21.158 31.0607 21.4393C31.342 21.7206 31.5 22.1022 31.5 22.5V28.5ZM31.5 13.5C31.5 13.8978 31.342 14.2794 31.0607 14.5607C30.7794 14.842 30.3978 15 30 15C29.6022 15 29.2206 14.842 28.9393 14.5607C28.658 14.2794 28.5 13.8978 28.5 13.5V7.5H22.5C22.1022 7.5 21.7206 7.34196 21.4393 7.06066C21.158 6.77936 21 6.39782 21 6C21 5.60218 21.158 5.22064 21.4393 4.93934C21.7206 4.65804 22.1022 4.5 22.5 4.5H28.5C29.2956 4.5 30.0587 4.81607 30.6213 5.37868C31.1839 5.94129 31.5 6.70435 31.5 7.5V13.5Z" fill="white"/>
</svg>
