<svg width="40" height="48" viewBox="0 0 40 48" fill="none" xmlns="http://www.w3.org/2000/svg">
<path d="M18 16H22V18H18V16ZM18 8H22V10H18V8ZM18 20H22V22H18V20Z" fill="white"/>
<path d="M38 24V18C31.9027 17.9981 25.9951 20.1196 21.292 24H18.708C14.0049 20.1196 8.09728 17.9981 2 18V24C1.46957 24 0.960859 24.2107 0.585786 24.5858C0.210714 24.9609 0 25.4696 0 26V30C0 30.5304 0.210714 31.0391 0.585786 31.4142C0.960859 31.7893 1.46957 32 2 32V40C8.68424 39.9933 15.1203 42.5319 20 47.1C24.8852 42.5406 31.3177 40.0033 38 40V32C38.5304 32 39.0391 31.7893 39.4142 31.4142C39.7893 31.0391 40 30.5304 40 30V26C40 25.4696 39.7893 24.9609 39.4142 24.5858C39.0391 24.2107 38.5304 24 38 24Z" fill="white"/>
<path d="M14 10C15.1046 10 16 9.10457 16 8C16 6.89543 15.1046 6 14 6C12.8954 6 12 6.89543 12 8C12 9.10457 12.8954 10 14 10Z" fill="white"/>
<path d="M26 10C27.1046 10 28 9.10457 28 8C28 6.89543 27.1046 6 26 6C24.8954 6 24 6.89543 24 8C24 9.10457 24.8954 10 26 10Z" fill="white"/>
<path d="M28 16H12C10.4092 15.9984 8.88399 15.3658 7.75911 14.2409C6.63424 13.116 6.00159 11.5908 6 10V6C6.00159 4.40919 6.63424 2.88399 7.75911 1.75911C8.88399 0.63424 10.4092 0.00158843 12 0H28C29.5908 0.00158843 31.116 0.63424 32.2409 1.75911C33.3658 2.88399 33.9984 4.40919 34 6V10C33.9984 11.5908 33.3658 13.116 32.2409 14.2409C31.116 15.3658 29.5908 15.9984 28 16ZM12 4C11.4696 4 10.9609 4.21071 10.5858 4.58579C10.2107 4.96086 10 5.46957 10 6V10C10 10.5304 10.2107 11.0391 10.5858 11.4142C10.9609 11.7893 11.4696 12 12 12H28C28.5304 12 29.0391 11.7893 29.4142 11.4142C29.7893 11.0391 30 10.5304 30 10V6C30 5.46957 29.7893 4.96086 29.4142 4.58579C29.0391 4.21071 28.5304 4 28 4H12Z" fill="white"/>
</svg>
