<svg width="32" height="32" viewBox="0 0 32 32" fill="none" xmlns="http://www.w3.org/2000/svg">
<path d="M4 31.15C2.9 31.15 1.95867 30.7587 1.176 29.976C0.393333 29.1934 0.00133333 28.2514 0 27.15V23.15C0 22.5834 0.192 22.1087 0.576 21.726C0.96 21.3434 1.43467 21.1514 2 21.15C2.56533 21.1487 3.04067 21.3407 3.426 21.726C3.81133 22.1114 4.00267 22.586 4 23.15V27.15H28V23.15C28 22.5834 28.192 22.1087 28.576 21.726C28.96 21.3434 29.4347 21.1514 30 21.15C30.5653 21.1487 31.0407 21.3407 31.426 21.726C31.8113 22.1114 32.0027 22.586 32 23.15V27.15C32 28.25 31.6087 29.192 30.826 29.976C30.0433 30.76 29.1013 31.1514 28 31.15H4ZM14 6.85003L10.25 10.6C9.85 11 9.37533 11.192 8.826 11.176C8.27667 11.16 7.80133 10.9514 7.4 10.55C7.03333 10.15 6.84133 9.68336 6.824 9.15003C6.80667 8.6167 6.99867 8.15003 7.4 7.75003L14.6 0.55003C14.8 0.35003 15.0167 0.208697 15.25 0.12603C15.4833 0.0433636 15.7333 0.0013641 16 3.07696e-05C16.2667 -0.00130256 16.5167 0.0406969 16.75 0.12603C16.9833 0.211364 17.2 0.352697 17.4 0.55003L24.6 7.75003C25 8.15003 25.192 8.6167 25.176 9.15003C25.16 9.68336 24.968 10.15 24.6 10.55C24.2 10.95 23.7253 11.1587 23.176 11.176C22.6267 11.1934 22.1513 11.0014 21.75 10.6L18 6.85003V21.15C18 21.7167 17.808 22.192 17.424 22.576C17.04 22.96 16.5653 23.1514 16 23.15C15.4347 23.1487 14.96 22.9567 14.576 22.574C14.192 22.1914 14 21.7167 14 21.15V6.85003Z" fill="white"/>
</svg>
