<svg width="36" height="40" viewBox="0 0 36 40" fill="none" xmlns="http://www.w3.org/2000/svg">
<path d="M30 22.0027H28.64L24.64 26.0027H28.46L32 30.0027H4L7.56 26.0027H11.66L7.66 22.0027H6L0 28.0027V36.0027C0 37.0636 0.421427 38.081 1.17157 38.8311C1.92172 39.5813 2.93913 40.0027 4 40.0027H32C33.0609 40.0027 34.0783 39.5813 34.8284 38.8311C35.5786 38.081 36 37.0636 36 36.0027V28.0027L30 22.0027ZM28 11.9027L18.1 21.8027L11 14.7227L20.92 4.82268L28 11.9027ZM19.52 0.582684L6.78 13.3227C6.59459 13.5077 6.4475 13.7275 6.34713 13.9694C6.24677 14.2114 6.19511 14.4707 6.19511 14.7327C6.19511 14.9946 6.24677 15.254 6.34713 15.4959C6.4475 15.7379 6.59459 15.9577 6.78 16.1427L16.68 26.0027C17.46 26.8227 18.72 26.8227 19.5 26.0027L32.22 13.3227C32.4054 13.1377 32.5525 12.9179 32.6529 12.6759C32.7532 12.434 32.8049 12.1746 32.8049 11.9127C32.8049 11.6507 32.7532 11.3914 32.6529 11.1494C32.5525 10.9075 32.4054 10.6877 32.22 10.5027L22.32 0.602684C22.1396 0.413888 21.923 0.26326 21.6833 0.15974C21.4435 0.0562192 21.1854 0.00191512 20.9242 4.97474e-05C20.6631 -0.00181562 20.4042 0.0487958 20.163 0.148881C19.9218 0.248966 19.7031 0.396485 19.52 0.582684Z" fill="white"/>
</svg>
